<?xml version="1.0" standalone="yes"?>
<svg xmlns="http://www.w3.org/2000/svg" width="249" height="154">
<path style="fill:#010101; stroke:none;" d="M0 0L0 154L249 154L249 0L0 0z"/>
<path style="fill:#4c5f68; stroke:none;" d="M43 15L44 16L43 15z"/>
<path style="fill:#82939c; stroke:none;" d="M44.6667 15.3333L45.3333 15.6667L44.6667 15.3333z"/>
<path style="fill:#a5b6be; stroke:none;" d="M46.6667 15.3333L47.3333 15.6667L46.6667 15.3333z"/>
<path style="fill:#f8fcfc; stroke:none;" d="M51 129L51 117C34.2773 114.342 42.666 96.3323 40.6713 85C39.3631 77.568 34.253 74.9771 28 72C30.9614 70.6624 34.3097 69.6402 36.7755 67.4421C46.0553 59.1698 37.4731 45.076 40.5139 35.0008C42.3562 28.8966 47.8541 29.5453 50.9722 25.412C52.8827 22.8796 52 17.9889 52 15C48.3739 15.2862 44.5155 15.6357 41 16.6088C20.5561 22.2679 31.4411 41.8581 27.5664 56C25.5985 63.1824 15.2065 63.7661 14.1489 70.108C12.5585 79.6449 23.8666 79.4995 26.9907 87.0147C32.5438 100.373 19.5844 121.345 40 127.073C43.5558 128.07 47.3442 128.536 51 129z"/>
<path style="fill:#4c5f68; stroke:none;" d="M191 15L191 25L192 25L191 15z"/>
<path style="fill:#f8fcfc; stroke:none;" d="M192 15L192 27C210.502 28.9074 200.624 49.0497 203.533 61C205.166 67.7048 210.33 69.4703 216 72C210.356 74.6907 204.94 77.3307 203.483 84C200.935 95.6647 209.953 115.371 192 117L192 129C199.725 128.023 209.336 127.396 213.775 119.96C222.506 105.338 207.493 83.6889 230 78C230 75.0058 230.86 70.2506 228.972 67.6991C225.592 63.131 219.276 63.2035 216.894 56.9992C211.439 42.7931 224.909 22.5148 203 16.76C199.442 15.8256 195.645 15.461 192 15z"/>
<path style="fill:#a5b6be; stroke:none;" d="M195 15L195 16L198 16L195 15z"/>
<path style="fill:#82939c; stroke:none;" d="M198 15L199 16L198 15z"/>
<path style="fill:#4c5f68; stroke:none;" d="M199 15L200 16L199 15M39 16L40 17L39 16z"/>
<path style="fill:#a5b6be; stroke:none;" d="M40 16L41 17L40 16M202 16L203 17L202 16z"/>
<path style="fill:#82939c; stroke:none;" d="M203 16L204 17L203 16z"/>
<path style="fill:#4c5f68; stroke:none;" d="M204 16L205 17L204 16z"/>
<path style="fill:#82939c; stroke:none;" d="M37 17L38 18L37 17z"/>
<path style="fill:#a5b6be; stroke:none;" d="M38 17L39 18L38 17M205 17L206 18L205 17z"/>
<path style="fill:#82939c; stroke:none;" d="M206 17L207 18L206 17z"/>
<path style="fill:#4c5f68; stroke:none;" d="M207 17L208 18L207 17z"/>
<path style="fill:#a5b6be; stroke:none;" d="M35 18L36 19L35 18z"/>
<path style="fill:#82939c; stroke:none;" d="M208 18L209 19L208 18z"/>
<path style="fill:#4c5f68; stroke:none;" d="M209 18L210 19L209 18M33 19L34 20L33 19z"/>
<path style="fill:#a5b6be; stroke:none;" d="M34 19L35 20L34 19z"/>
<path style="fill:#4c5f68; stroke:none;" d="M210 19L211 20L210 19M32 20L33 21L32 20z"/>
<path style="fill:#82939c; stroke:none;" d="M211 20L212 21L211 20z"/>
<path style="fill:#4c5f68; stroke:none;" d="M31 21L32 22L31 21z"/>
<path style="fill:#82939c; stroke:none;" d="M212 21L213 22L212 21z"/>
<path style="fill:#4c5f68; stroke:none;" d="M214 21L215 22L214 21M30 22L31 23L30 22z"/>
<path style="fill:#82939c; stroke:none;" d="M213 22L214 23L213 22z"/>
<path style="fill:#4c5f68; stroke:none;" d="M214 23L215 24L214 23z"/>
<path style="fill:#82939c; stroke:none;" d="M29 24L30 25L29 24M214 24L215 25L214 24z"/>
<path style="fill:#a5b6be; stroke:none;" d="M29 25L30 26L29 25z"/>
<path style="fill:#82939c; stroke:none;" d="M191 25L192 26L191 25M28 26L29 27L28 26z"/>
<path style="fill:#a5b6be; stroke:none;" d="M51 26L52 27L51 26z"/>
<path style="fill:#4c5f68; stroke:none;" d="M191 26L192 27L191 26z"/>
<path style="fill:#82939c; stroke:none;" d="M215 26L216 27L215 26z"/>
<path style="fill:#a5b6be; stroke:none;" d="M28 27L29 28L28 27M46 27L47 28L46 27z"/>
<path style="fill:#4c5f68; stroke:none;" d="M47.6667 27.3333L48.3333 27.6667L47.6667 27.3333M194.667 27.3333L195.333 27.6667L194.667 27.3333z"/>
<path style="fill:#82939c; stroke:none;" d="M196 27L197 28L196 27z"/>
<path style="fill:#a5b6be; stroke:none;" d="M44 28L45 29L44 28z"/>
<path style="fill:#4c5f68; stroke:none;" d="M45 28L46 29L45 28M198 28L199 29L198 28M216.333 28.6667L216.667 29.3333L216.333 28.6667M27 29L28 30L27 29z"/>
<path style="fill:#82939c; stroke:none;" d="M43 29L44 30L43 29M200 29L201 30L200 29M27.3333 30.6667L27.6667 31.3333L27.3333 30.6667M42 30L43 31L42 30z"/>
<path style="fill:#a5b6be; stroke:none;" d="M201 30L203 32L201 30M216.333 30.6667L216.667 31.3333L216.333 30.6667z"/>
<path style="fill:#4c5f68; stroke:none;" d="M201 31L202 32L201 31z"/>
<path style="fill:#a5b6be; stroke:none;" d="M27.3333 32.6667L27.6667 33.3333L27.3333 32.6667z"/>
<path style="fill:#82939c; stroke:none;" d="M41 32L42 33L41 32M202 32L203 33L202 32z"/>
<path style="fill:#a5b6be; stroke:none;" d="M40.3333 33.6667L40.6667 34.3333L40.3333 33.6667z"/>
<path style="fill:#4c5f68; stroke:none;" d="M41 33L42 34L41 33M202 33L203 34L202 33z"/>
<path style="fill:#82939c; stroke:none;" d="M40 35L40 39L41 39L40 35z"/>
<path style="fill:#a5b6be; stroke:none;" d="M203 35L203 38L204 38L203 35z"/>
<path style="fill:#4c5f68; stroke:none;" d="M217 35L217 40L218 40L217 35z"/>
<path style="fill:#82939c; stroke:none;" d="M203.333 38.6667L203.667 39.3333L203.333 38.6667z"/>
<path style="fill:#4c5f68; stroke:none;" d="M40 39L41 40L40 39z"/>
<path style="fill:#82939c; stroke:none;" d="M40.3333 40.6667L40.6667 41.3333L40.3333 40.6667z"/>
<path style="fill:#a5b6be; stroke:none;" d="M203 40L203 45L204 45L203 40M27 42L27 45L28 45L27 42M40 42L40 47L41 47L40 42z"/>
<path style="fill:#82939c; stroke:none;" d="M27 45L27 49L28 49L27 45z"/>
<path style="fill:#a5b6be; stroke:none;" d="M216.333 46.6667L216.667 47.3333L216.333 46.6667z"/>
<path style="fill:#4c5f68; stroke:none;" d="M138 48L139 49L138 48z"/>
<path style="fill:#82939c; stroke:none;" d="M139 48L140 49L139 48z"/>
<path style="fill:#a5b6be; stroke:none;" d="M140 48L141 49L140 48z"/>
<path style="fill:#f8fcfc; stroke:none;" d="M166 79L151 79C150.951 83.1863 147.454 92.2725 143.028 84.8511C140.552 80.7004 141.917 72.6809 142.005 68C142.194 57.919 150.881 57.9239 151 68L166 68C166 63.875 167.492 56.1356 164.972 52.652C162.32 48.9855 154.141 48.2257 150 48.0394C132.776 47.2641 122.946 56.8512 123.001 74C123.055 90.8472 133.399 99.7079 150 98.9606C154.141 98.7743 162.32 98.0145 164.972 94.348C167.492 90.8644 166 83.125 166 79z"/>
<path style="fill:#a5b6be; stroke:none;" d="M154 48L155 49L154 48z"/>
<path style="fill:#82939c; stroke:none;" d="M155 48L156 49L155 48z"/>
<path style="fill:#4c5f68; stroke:none;" d="M156 48L157 49L156 48M202 48L202 56L203 56L202 48z"/>
<path style="fill:#82939c; stroke:none;" d="M216 48L216 52L217 52L216 48z"/>
<path style="fill:#4c5f68; stroke:none;" d="M27 49L27 56L28 56L27 49z"/>
<path style="fill:#f8fcfc; stroke:none;" d="M56 49L54 63C61.9152 62.7368 62.868 55.5413 65 49L56 49z"/>
<path style="fill:#4c5f68; stroke:none;" d="M65 49L67 51L67 49L65 49z"/>
<path style="fill:#f8fcfc; stroke:none;" d="M67 49L65 63C72.7421 62.7426 74.0054 55.7346 75 49L67 49z"/>
<path style="fill:#a5b6be; stroke:none;" d="M75.3333 49.6667L75.6667 50.3333L75.3333 49.6667z"/>
<path style="fill:#82939c; stroke:none;" d="M79 49L79 64L80 64L79 49z"/>
<path style="fill:#f8fcfc; stroke:none;" d="M80 49L80 64L92 64L92 59L98 59C90.7961 71.9396 79.0017 82.5348 79 98L120 98L120 83L108 83L108 88L100 88C108.717 76.6597 118.998 63.6396 119 49L80 49z"/>
<path style="fill:#a5b6be; stroke:none;" d="M119 49L118 60L119 60L119 49z"/>
<path style="fill:#82939c; stroke:none;" d="M135 49L136 50L135 49z"/>
<path style="fill:#a5b6be; stroke:none;" d="M136 49L137 50L136 49M158 49L159 50L158 49z"/>
<path style="fill:#82939c; stroke:none;" d="M159 49L160 50L159 49z"/>
<path style="fill:#4c5f68; stroke:none;" d="M160 49L161 50L160 49z"/>
<path style="fill:#f8fcfc; stroke:none;" d="M172 49L170 63C178.053 62.7322 178.58 55.4805 181 49L172 49z"/>
<path style="fill:#4c5f68; stroke:none;" d="M181 49L183 51L183 49L181 49z"/>
<path style="fill:#f8fcfc; stroke:none;" d="M183 49L181 63C188.742 62.7426 190.005 55.7346 191 49L183 49z"/>
<path style="fill:#a5b6be; stroke:none;" d="M191 49L192 50L191 49z"/>
<path style="fill:#4c5f68; stroke:none;" d="M55 50L56 51L55 50z"/>
<path style="fill:#a5b6be; stroke:none;" d="M64 50L65 51L64 50z"/>
<path style="fill:#82939c; stroke:none;" d="M133 50L134 51L133 50M162 50L163 51L162 50z"/>
<path style="fill:#4c5f68; stroke:none;" d="M171 50L172 51L171 50z"/>
<path style="fill:#a5b6be; stroke:none;" d="M180 50L181 51L180 50z"/>
<path style="fill:#82939c; stroke:none;" d="M191 50L192 51L191 50z"/>
<path style="fill:#4c5f68; stroke:none;" d="M41 51L41 58L42 58L41 51z"/>
<path style="fill:#82939c; stroke:none;" d="M55.3333 51.6667L55.6667 52.3333L55.3333 51.6667M64 51L65 52L64 51M66 51L67 52L66 51z"/>
<path style="fill:#4c5f68; stroke:none;" d="M75 51L76 52L75 51z"/>
<path style="fill:#82939c; stroke:none;" d="M131 51L132 52L131 51M164 51L165 52L164 51M171.333 51.6667L171.667 52.3333L171.333 51.6667M180 51L181 52L180 51M182.333 51.6667L182.667 52.3333L182.333 51.6667z"/>
<path style="fill:#4c5f68; stroke:none;" d="M191 51L192 52L191 51M64 52L65 53L64 52z"/>
<path style="fill:#a5b6be; stroke:none;" d="M66 52L66 55L67 55L66 52M74 52L75 53L74 52z"/>
<path style="fill:#82939c; stroke:none;" d="M130 52L131 53L130 52M166 52L166 68L167 68L166 52z"/>
<path style="fill:#a5b6be; stroke:none;" d="M179.333 52.6667L179.667 53.3333L179.333 52.6667z"/>
<path style="fill:#4c5f68; stroke:none;" d="M180 52L181 53L180 52z"/>
<path style="fill:#a5b6be; stroke:none;" d="M190 52L191 53L190 52z"/>
<path style="fill:#4c5f68; stroke:none;" d="M216 52L217 53L216 52z"/>
<path style="fill:#a5b6be; stroke:none;" d="M55.3333 53.6667L55.6667 54.3333L55.3333 53.6667M63 53L64 54L63 53z"/>
<path style="fill:#82939c; stroke:none;" d="M74 53L75 54L74 53z"/>
<path style="fill:#4c5f68; stroke:none;" d="M128 53L127 55L128 53z"/>
<path style="fill:#a5b6be; stroke:none;" d="M129 53L130 54L129 53M171.333 53.6667L171.667 54.3333L171.333 53.6667M182 53L183 54L182 53z"/>
<path style="fill:#82939c; stroke:none;" d="M190 53L191 54L190 53M216.333 53.6667L216.667 54.3333L216.333 53.6667z"/>
<path style="fill:#4c5f68; stroke:none;" d="M63 54L64 55L63 54M74 54L75 55L74 54z"/>
<path style="fill:#a5b6be; stroke:none;" d="M128 54L129 55L128 54z"/>
<path style="fill:#82939c; stroke:none;" d="M179 54L180 55L179 54z"/>
<path style="fill:#4c5f68; stroke:none;" d="M190 54L191 55L190 54M54 55L55 56L54 55M65 55L66 56L65 55z"/>
<path style="fill:#a5b6be; stroke:none;" d="M73 55L74 56L73 55M127 55L128 56L127 55z"/>
<path style="fill:#4c5f68; stroke:none;" d="M170.333 55.6667L170.667 56.3333L170.333 55.6667M181 55L182 56L181 55z"/>
<path style="fill:#a5b6be; stroke:none;" d="M189 55L190 56L189 55z"/>
<path style="fill:#4c5f68; stroke:none;" d="M216 55L217 56L216 55z"/>
<path style="fill:#82939c; stroke:none;" d="M27 56L28 57L27 56M54.3333 56.6667L54.6667 57.3333L54.3333 56.6667z"/>
<path style="fill:#a5b6be; stroke:none;" d="M62 56L63 57L62 56z"/>
<path style="fill:#82939c; stroke:none;" d="M65.3333 56.6667L65.6667 57.3333L65.3333 56.6667M73 56L74 57L73 56M126 56L127 57L126 56z"/>
<path style="fill:#a5b6be; stroke:none;" d="M178 56L179 57L178 56z"/>
<path style="fill:#82939c; stroke:none;" d="M181.333 56.6667L181.667 57.3333L181.333 56.6667M189 56L190 57L189 56M202 56L203 57L202 56z"/>
<path style="fill:#a5b6be; stroke:none;" d="M216 56L217 57L216 56M27 57L28 58L27 57z"/>
<path style="fill:#4c5f68; stroke:none;" d="M62 57L63 58L62 57M73 57L74 58L73 57M125 57L126 58L125 57z"/>
<path style="fill:#a5b6be; stroke:none;" d="M126 57L127 58L126 57z"/>
<path style="fill:#82939c; stroke:none;" d="M170 57L171 58L170 57z"/>
<path style="fill:#4c5f68; stroke:none;" d="M178 57L179 58L178 57M189 57L190 58L189 57M202 57L202 60L203 60L202 57z"/>
<path style="fill:#a5b6be; stroke:none;" d="M54.3333 58.6667L54.6667 59.3333L54.3333 58.6667M61.3333 58.6667L61.6667 59.3333L61.3333 58.6667M65 58L66 59L65 58M72 58L73 59L72 58z"/>
<path style="fill:#82939c; stroke:none;" d="M125 58L126 59L125 58z"/>
<path style="fill:#a5b6be; stroke:none;" d="M170.333 58.6667L170.667 59.3333L170.333 58.6667M177.333 58.6667L177.667 59.3333L177.333 58.6667M181 58L182 59L181 58M188 58L189 59L188 58z"/>
<path style="fill:#82939c; stroke:none;" d="M217 58L218 59L217 58M26 59L27 60L26 59M72 59L73 60L72 59M92 59L93 60L92 59M97 59L98 60L97 59z"/>
<path style="fill:#4c5f68; stroke:none;" d="M119 59L120 60L119 59M124 59L125 60L124 59z"/>
<path style="fill:#a5b6be; stroke:none;" d="M144 59L145 60L144 59z"/>
<path style="fill:#4c5f68; stroke:none;" d="M145 59L146 60L145 59M147 59L148 60L147 59z"/>
<path style="fill:#82939c; stroke:none;" d="M148 59L149 60L148 59M188 59L189 60L188 59z"/>
<path style="fill:#a5b6be; stroke:none;" d="M217 59L218 60L217 59z"/>
<path style="fill:#4c5f68; stroke:none;" d="M25 60L26 61L25 60M53.3333 60.6667L53.6667 61.3333L53.3333 60.6667M61 60L62 61L61 60M64 60L65 61L64 60M72 60L73 61L72 60z"/>
<path style="fill:#a5b6be; stroke:none;" d="M92 60L92 64L93 64L92 60z"/>
<path style="fill:#4c5f68; stroke:none;" d="M96 60L97 61L96 60z"/>
<path style="fill:#a5b6be; stroke:none;" d="M97 60L98 61L97 60z"/>
<path style="fill:#82939c; stroke:none;" d="M118 60L119 61L118 60M124 60L125 61L124 60M143 60L144 61L143 60z"/>
<path style="fill:#4c5f68; stroke:none;" d="M149 60L150 61L149 60z"/>
<path style="fill:#a5b6be; stroke:none;" d="M150.333 60.6667L150.667 61.3333L150.333 60.6667z"/>
<path style="fill:#4c5f68; stroke:none;" d="M169.333 60.6667L169.667 61.3333L169.333 60.6667M177 60L178 61L177 60M180 60L181 61L180 60M188 60L189 61L188 60z"/>
<path style="fill:#a5b6be; stroke:none;" d="M218 60L219 61L218 60z"/>
<path style="fill:#4c5f68; stroke:none;" d="M24 61L25 62L24 61z"/>
<path style="fill:#82939c; stroke:none;" d="M40.3333 61.6667L40.6667 62.3333L40.3333 61.6667z"/>
<path style="fill:#a5b6be; stroke:none;" d="M60 61L61 62L60 61z"/>
<path style="fill:#82939c; stroke:none;" d="M64.3333 61.6667L64.6667 62.3333L64.3333 61.6667z"/>
<path style="fill:#a5b6be; stroke:none;" d="M71 61L72 62L71 61M96 61L97 62L96 61M117 61L116 63L117 61M124 61L125 62L124 61M142 61L142 86L143 86L142 61z"/>
<path style="fill:#4c5f68; stroke:none;" d="M143 61L144 62L143 61z"/>
<path style="fill:#a5b6be; stroke:none;" d="M176 61L177 62L176 61z"/>
<path style="fill:#82939c; stroke:none;" d="M180.333 61.6667L180.667 62.3333L180.333 61.6667z"/>
<path style="fill:#a5b6be; stroke:none;" d="M187 61L188 62L187 61M203 61L204 62L203 61z"/>
<path style="fill:#82939c; stroke:none;" d="M219 61L220 62L219 61z"/>
<path style="fill:#4c5f68; stroke:none;" d="M23 62L24 63L23 62z"/>
<path style="fill:#82939c; stroke:none;" d="M53 62L54 63L53 62M60 62L61 63L60 62M71 62L72 63L71 62z"/>
<path style="fill:#4c5f68; stroke:none;" d="M95 62L94 64L95 62M117 62L118 63L117 62M123 62L124 63L123 62z"/>
<path style="fill:#82939c; stroke:none;" d="M150 62L151 63L150 62M169 62L170 63L169 62M176 62L177 63L176 62M187 62L188 63L187 62M203 62L204 63L203 62M220 62L221 63L220 62z"/>
<path style="fill:#4c5f68; stroke:none;" d="M221 62L223 64L221 62M21 63L22 64L21 63z"/>
<path style="fill:#a5b6be; stroke:none;" d="M22 63L23 64L22 63M95 63L96 64L95 63z"/>
<path style="fill:#82939c; stroke:none;" d="M116 63L117 64L116 63M123 63L124 64L123 63z"/>
<path style="fill:#4c5f68; stroke:none;" d="M150 63L150 67L151 67L150 63M203 63L204 64L203 63z"/>
<path style="fill:#a5b6be; stroke:none;" d="M221 63L222 64L221 63z"/>
<path style="fill:#82939c; stroke:none;" d="M20 64L21 65L20 64M39 64L40 65L39 64z"/>
<path style="fill:#a5b6be; stroke:none;" d="M94 64L95 65L94 64M115 64L116 65L115 64M123.333 64.6667L123.667 65.3333L123.333 64.6667M204 64L205 65L204 64M223 64L224 65L223 64z"/>
<path style="fill:#4c5f68; stroke:none;" d="M224 64L225 65L224 64M17 65L18 66L17 65z"/>
<path style="fill:#a5b6be; stroke:none;" d="M18 65L19 66L18 65z"/>
<path style="fill:#4c5f68; stroke:none;" d="M93 65L92 67L93 65M115 65L116 66L115 65M204 65L205 66L204 65z"/>
<path style="fill:#a5b6be; stroke:none;" d="M225 65L226 66L225 65z"/>
<path style="fill:#82939c; stroke:none;" d="M226 65L227 66L226 65z"/>
<path style="fill:#4c5f68; stroke:none;" d="M227 65L228 66L227 65z"/>
<path style="fill:#82939c; stroke:none;" d="M14 66L15 67L14 66z"/>
<path style="fill:#a5b6be; stroke:none;" d="M15 66L16 67L15 66z"/>
<path style="fill:#4c5f68; stroke:none;" d="M38 66L39 67L38 66z"/>
<path style="fill:#a5b6be; stroke:none;" d="M93 66L94 67L93 66z"/>
<path style="fill:#82939c; stroke:none;" d="M114 66L115 67L114 66z"/>
<path style="fill:#4c5f68; stroke:none;" d="M122.333 66.6667L122.667 67.3333L122.333 66.6667z"/>
<path style="fill:#82939c; stroke:none;" d="M205 66L206 67L205 66z"/>
<path style="fill:#a5b6be; stroke:none;" d="M228.667 66.3333L229.333 66.6667L228.667 66.3333z"/>
<path style="fill:#4c5f68; stroke:none;" d="M230 66L231 67L230 66M37 67L38 68L37 67z"/>
<path style="fill:#82939c; stroke:none;" d="M92 67L93 68L92 67z"/>
<path style="fill:#a5b6be; stroke:none;" d="M113 67L114 68L113 67z"/>
<path style="fill:#82939c; stroke:none;" d="M150 67L151 68L150 67M206 67L207 68L206 67M230 67L230 78L231 78L230 67z"/>
<path style="fill:#a5b6be; stroke:none;" d="M35 68L36 69L35 68z"/>
<path style="fill:#4c5f68; stroke:none;" d="M36 68L37 69L36 68M91 68L92 69L91 68M113 68L114 69L113 68z"/>
<path style="fill:#82939c; stroke:none;" d="M122.333 68.6667L122.667 69.3333L122.333 68.6667z"/>
<path style="fill:#4c5f68; stroke:none;" d="M207 68L208 69L207 68z"/>
<path style="fill:#82939c; stroke:none;" d="M34 69L35 70L34 69z"/>
<path style="fill:#a5b6be; stroke:none;" d="M91 69L92 70L91 69z"/>
<path style="fill:#82939c; stroke:none;" d="M112 69L113 70L112 69M209 69L210 70L209 69z"/>
<path style="fill:#a5b6be; stroke:none;" d="M31 70L32 71L31 70z"/>
<path style="fill:#82939c; stroke:none;" d="M32 70L33 71L32 70M90 70L91 71L90 70z"/>
<path style="fill:#a5b6be; stroke:none;" d="M111 70L112 71L111 70M122 70L122 76L123 76L122 70z"/>
<path style="fill:#4c5f68; stroke:none;" d="M211 70L212 71L211 70z"/>
<path style="fill:#a5b6be; stroke:none;" d="M212 70L213 71L212 70M28.3333 71.6667L28.6667 72.3333L28.3333 71.6667z"/>
<path style="fill:#4c5f68; stroke:none;" d="M29 71L29 73L31 73L31 71L29 71M89 71L90 72L89 71M111 71L112 72L111 71M213 71L215 73L213 71z"/>
<path style="fill:#82939c; stroke:none;" d="M214 71L215 72L214 71z"/>
<path style="fill:#a5b6be; stroke:none;" d="M215.333 71.6667L215.667 72.3333L215.333 71.6667M89 72L90 73L89 72z"/>
<path style="fill:#82939c; stroke:none;" d="M110 72L111 73L110 72z"/>
<path style="fill:#a5b6be; stroke:none;" d="M31 73L32 74L31 73z"/>
<path style="fill:#4c5f68; stroke:none;" d="M37 73L38 74L37 73z"/>
<path style="fill:#82939c; stroke:none;" d="M88 73L89 74L88 73z"/>
<path style="fill:#a5b6be; stroke:none;" d="M109 73L110 74L109 73z"/>
<path style="fill:#4c5f68; stroke:none;" d="M110 73L111 74L110 73M211 73L212 74L211 73z"/>
<path style="fill:#a5b6be; stroke:none;" d="M212 73L213 74L212 73M33 74L34 75L33 74z"/>
<path style="fill:#4c5f68; stroke:none;" d="M34 74L35 75L34 74M87 74L88 75L87 74M109 74L110 75L109 74M209 74L210 75L209 74z"/>
<path style="fill:#a5b6be; stroke:none;" d="M210 74L211 75L210 74z"/>
<path style="fill:#82939c; stroke:none;" d="M35 75L36 76L35 75z"/>
<path style="fill:#4c5f68; stroke:none;" d="M36 75L38 77L36 75z"/>
<path style="fill:#a5b6be; stroke:none;" d="M87 75L88 76L87 75z"/>
<path style="fill:#82939c; stroke:none;" d="M108 75L109 76L108 75M208 75L209 76L208 75z"/>
<path style="fill:#a5b6be; stroke:none;" d="M36 76L37 77L36 76z"/>
<path style="fill:#82939c; stroke:none;" d="M86 76L87 77L86 76z"/>
<path style="fill:#4c5f68; stroke:none;" d="M108 76L109 77L108 76z"/>
<path style="fill:#82939c; stroke:none;" d="M122 76L122 80L123 80L122 76z"/>
<path style="fill:#4c5f68; stroke:none;" d="M206 76L205 78L206 76z"/>
<path style="fill:#a5b6be; stroke:none;" d="M207 76L208 77L207 76M14 77L15 78L14 77z"/>
<path style="fill:#4c5f68; stroke:none;" d="M38 77L39 78L38 77M85 77L86 78L85 77M107 77L108 78L107 77M202 77L203 78L202 77z"/>
<path style="fill:#a5b6be; stroke:none;" d="M206 77L207 78L206 77z"/>
<path style="fill:#82939c; stroke:none;" d="M16 78L17 79L16 78z"/>
<path style="fill:#a5b6be; stroke:none;" d="M17 78L18 79L17 78z"/>
<path style="fill:#82939c; stroke:none;" d="M38 78L39 79L38 78z"/>
<path style="fill:#a5b6be; stroke:none;" d="M85 78L86 79L85 78M106 78L107 79L106 78M205 78L206 79L205 78M227 78L228 79L227 78z"/>
<path style="fill:#4c5f68; stroke:none;" d="M228 78L229 79L228 78M18 79L19 80L18 79z"/>
<path style="fill:#a5b6be; stroke:none;" d="M19 79L20 80L19 79z"/>
<path style="fill:#82939c; stroke:none;" d="M84 79L85 80L84 79z"/>
<path style="fill:#4c5f68; stroke:none;" d="M106 79L107 80L106 79z"/>
<path style="fill:#82939c; stroke:none;" d="M150 79L151 80L150 79M166 79L166 95L167 95L166 79M204 79L205 80L204 79z"/>
<path style="fill:#a5b6be; stroke:none;" d="M224 79L225 80L224 79z"/>
<path style="fill:#4c5f68; stroke:none;" d="M225 79L226 80L225 79M20 80L21 81L20 80z"/>
<path style="fill:#a5b6be; stroke:none;" d="M21 80L22 81L21 80M39 80L40 81L39 80z"/>
<path style="fill:#4c5f68; stroke:none;" d="M83 80L84 81L83 80M105 80L106 81L105 80M122 80L123 81L122 80M150 80L150 84L151 84L150 80M223 80L224 81L223 80z"/>
<path style="fill:#82939c; stroke:none;" d="M22 81L23 82L22 81z"/>
<path style="fill:#4c5f68; stroke:none;" d="M40 81L41 82L40 81z"/>
<path style="fill:#a5b6be; stroke:none;" d="M83 81L84 82L83 81M104 81L105 82L104 81M123.333 81.6667L123.667 82.3333L123.333 81.6667z"/>
<path style="fill:#4c5f68; stroke:none;" d="M203 81L204 82L203 81z"/>
<path style="fill:#82939c; stroke:none;" d="M221 81L222 82L221 81z"/>
<path style="fill:#4c5f68; stroke:none;" d="M23 82L26 85L23 82z"/>
<path style="fill:#a5b6be; stroke:none;" d="M24 82L25 83L24 82z"/>
<path style="fill:#82939c; stroke:none;" d="M40 82L41 83L40 82z"/>
<path style="fill:#4c5f68; stroke:none;" d="M82 82L81 84L82 82M104 82L105 83L104 82z"/>
<path style="fill:#82939c; stroke:none;" d="M203 82L204 83L203 82z"/>
<path style="fill:#4c5f68; stroke:none;" d="M220 82L221 83L220 82z"/>
<path style="fill:#a5b6be; stroke:none;" d="M25 83L26 84L25 83M40 83L41 84L40 83M82 83L83 84L82 83z"/>
<path style="fill:#82939c; stroke:none;" d="M103 83L104 84L103 83z"/>
<path style="fill:#4c5f68; stroke:none;" d="M107.333 83.6667L107.667 84.3333L107.333 83.6667z"/>
<path style="fill:#a5b6be; stroke:none;" d="M120 83L120 98L121 98L120 83z"/>
<path style="fill:#82939c; stroke:none;" d="M123 83L124 84L123 83z"/>
<path style="fill:#a5b6be; stroke:none;" d="M203 83L204 84L203 83z"/>
<path style="fill:#4c5f68; stroke:none;" d="M219 83L220 84L219 83z"/>
<path style="fill:#82939c; stroke:none;" d="M81 84L82 85L81 84z"/>
<path style="fill:#a5b6be; stroke:none;" d="M102 84L103 85L102 84z"/>
<path style="fill:#4c5f68; stroke:none;" d="M123 84L124 85L123 84z"/>
<path style="fill:#82939c; stroke:none;" d="M150.333 84.6667L150.667 85.3333L150.333 84.6667M218 84L219 85L218 84M26 85L27 86L26 85z"/>
<path style="fill:#4c5f68; stroke:none;" d="M80 85L79 87L80 85M102 85L103 86L102 85z"/>
<path style="fill:#82939c; stroke:none;" d="M107.333 85.6667L107.667 86.3333L107.333 85.6667z"/>
<path style="fill:#a5b6be; stroke:none;" d="M124 85L125 86L124 85z"/>
<path style="fill:#4c5f68; stroke:none;" d="M143 85L144 86L143 85M202.333 85.6667L202.667 86.3333L202.333 85.6667M26 86L27 87L26 86M41 86L41 93L42 93L41 86z"/>
<path style="fill:#a5b6be; stroke:none;" d="M80 86L81 87L80 86z"/>
<path style="fill:#82939c; stroke:none;" d="M101 86L102 87L101 86z"/>
<path style="fill:#4c5f68; stroke:none;" d="M122 86L123 87L122 86z"/>
<path style="fill:#82939c; stroke:none;" d="M124 86L125 87L124 86M143 86L144 87L143 86z"/>
<path style="fill:#4c5f68; stroke:none;" d="M149 86L150 87L149 86z"/>
<path style="fill:#a5b6be; stroke:none;" d="M150 86L151 87L150 86z"/>
<path style="fill:#82939c; stroke:none;" d="M217 86L218 87L217 86z"/>
<path style="fill:#a5b6be; stroke:none;" d="M27 87L28 88L27 87z"/>
<path style="fill:#82939c; stroke:none;" d="M79 87L80 88L79 87z"/>
<path style="fill:#a5b6be; stroke:none;" d="M100 87L101 88L100 87z"/>
<path style="fill:#4c5f68; stroke:none;" d="M107 87L108 88L107 87M124 87L125 88L124 87z"/>
<path style="fill:#a5b6be; stroke:none;" d="M144 87L145 88L144 87z"/>
<path style="fill:#4c5f68; stroke:none;" d="M145 87L146 88L145 87M147 87L148 88L147 87z"/>
<path style="fill:#82939c; stroke:none;" d="M148 87L149 88L148 87z"/>
<path style="fill:#a5b6be; stroke:none;" d="M149 87L150 88L149 87z"/>
<path style="fill:#82939c; stroke:none;" d="M202 87L202 91L203 91L202 87M27 88L28 89L27 88z"/>
<path style="fill:#4c5f68; stroke:none;" d="M78 88L79 89L78 88z"/>
<path style="fill:#82939c; stroke:none;" d="M125 88L126 89L125 88z"/>
<path style="fill:#a5b6be; stroke:none;" d="M216 88L217 89L216 88z"/>
<path style="fill:#4c5f68; stroke:none;" d="M27 89L27 96L28 96L27 89z"/>
<path style="fill:#82939c; stroke:none;" d="M78 89L78 98L79 98L78 89z"/>
<path style="fill:#4c5f68; stroke:none;" d="M125 89L126 90L125 89z"/>
<path style="fill:#82939c; stroke:none;" d="M216.333 89.6667L216.667 90.3333L216.333 89.6667M126 90L127 91L126 90z"/>
<path style="fill:#a5b6be; stroke:none;" d="M127 91L129 93L127 91z"/>
<path style="fill:#4c5f68; stroke:none;" d="M202 91L202 96L203 96L202 91M216 91L216 94L217 94L216 91M127 92L128 93L127 92z"/>
<path style="fill:#a5b6be; stroke:none;" d="M129 93L130 94L129 93z"/>
<path style="fill:#82939c; stroke:none;" d="M130 94L131 95L130 94M216 94L217 95L216 94z"/>
<path style="fill:#4c5f68; stroke:none;" d="M131 95L132 96L131 95z"/>
<path style="fill:#82939c; stroke:none;" d="M164 95L165 96L164 95z"/>
<path style="fill:#4c5f68; stroke:none;" d="M165 95L166 96L165 95z"/>
<path style="fill:#a5b6be; stroke:none;" d="M216 95L216 99L217 99L216 95z"/>
<path style="fill:#82939c; stroke:none;" d="M27 96L27 99L28 99L27 96M133 96L134 97L133 96M162 96L163 97L162 96z"/>
<path style="fill:#4c5f68; stroke:none;" d="M163 96L164 97L163 96M134.667 97.3333L135.333 97.6667L134.667 97.3333z"/>
<path style="fill:#a5b6be; stroke:none;" d="M136 97L137 98L136 97M158.667 97.3333L159.333 97.6667L158.667 97.3333z"/>
<path style="fill:#4c5f68; stroke:none;" d="M160 97L161 98L160 97z"/>
<path style="fill:#a5b6be; stroke:none;" d="M40 98L40 101L41 101L40 98z"/>
<path style="fill:#4c5f68; stroke:none;" d="M138 98L139 99L138 98z"/>
<path style="fill:#82939c; stroke:none;" d="M139 98L140 99L139 98z"/>
<path style="fill:#a5b6be; stroke:none;" d="M140 98L141 99L140 98M154 98L155 99L154 98z"/>
<path style="fill:#82939c; stroke:none;" d="M155 98L156 99L155 98z"/>
<path style="fill:#4c5f68; stroke:none;" d="M156 98L157 99L156 98z"/>
<path style="fill:#a5b6be; stroke:none;" d="M27 99L27 102L28 102L27 99M203 100L203 103L204 103L203 100z"/>
<path style="fill:#82939c; stroke:none;" d="M40 101L40 104L41 104L40 101z"/>
<path style="fill:#4c5f68; stroke:none;" d="M217 102L217 108L218 108L217 102z"/>
<path style="fill:#82939c; stroke:none;" d="M203 103L204 104L203 103z"/>
<path style="fill:#4c5f68; stroke:none;" d="M40.3333 104.667L40.6667 105.333L40.3333 104.667z"/>
<path style="fill:#a5b6be; stroke:none;" d="M203 104L204 105L203 104z"/>
<path style="fill:#82939c; stroke:none;" d="M203.333 105.667L203.667 106.333L203.333 105.667M40.3333 106.667L40.6667 107.333L40.3333 106.667z"/>
<path style="fill:#a5b6be; stroke:none;" d="M203.333 107.667L203.667 108.333L203.333 107.667M40.3333 108.667L40.6667 109.333L40.3333 108.667M27 110L27 113L28 113L27 110z"/>
<path style="fill:#4c5f68; stroke:none;" d="M41.3333 110.667L41.6667 111.333L41.3333 110.667M202 110L203 111L202 110z"/>
<path style="fill:#82939c; stroke:none;" d="M202 111L203 112L202 111z"/>
<path style="fill:#4c5f68; stroke:none;" d="M42 112L43 113L42 112M46 112L47 113L46 112z"/>
<path style="fill:#82939c; stroke:none;" d="M27 113L28 114L27 113M42 113L43 114L42 113z"/>
<path style="fill:#a5b6be; stroke:none;" d="M201 113L202 114L201 113z"/>
<path style="fill:#82939c; stroke:none;" d="M216.333 113.667L216.667 114.333L216.333 113.667z"/>
<path style="fill:#4c5f68; stroke:none;" d="M27 114L28 115L27 114z"/>
<path style="fill:#82939c; stroke:none;" d="M43 114L44 115L43 114M200 114L201 115L200 114z"/>
<path style="fill:#a5b6be; stroke:none;" d="M44 115L45 116L44 115z"/>
<path style="fill:#4c5f68; stroke:none;" d="M45 115L46 116L45 115M198 115L199 116L198 115z"/>
<path style="fill:#a5b6be; stroke:none;" d="M199 115L200 116L199 115M28 116L29 117L28 116z"/>
<path style="fill:#82939c; stroke:none;" d="M47 116L48 117L47 116z"/>
<path style="fill:#4c5f68; stroke:none;" d="M48 116L49 117L48 116M195 116L196 117L195 116z"/>
<path style="fill:#a5b6be; stroke:none;" d="M196 116L197 117L196 116M215 116L216 117L215 116z"/>
<path style="fill:#4c5f68; stroke:none;" d="M28 117L29 118L28 117z"/>
<path style="fill:#a5b6be; stroke:none;" d="M51 117L51 129L52 129L51 117z"/>
<path style="fill:#82939c; stroke:none;" d="M215 117L216 118L215 117z"/>
<path style="fill:#4c5f68; stroke:none;" d="M191 118L191 128L192 128L191 118z"/>
<path style="fill:#a5b6be; stroke:none;" d="M214 118L215 119L214 118z"/>
<path style="fill:#82939c; stroke:none;" d="M29 119L30 120L29 119M214 119L215 120L214 119z"/>
<path style="fill:#4c5f68; stroke:none;" d="M30 121L31 122L30 121M213 121L214 122L213 121M31 122L32 123L31 122M212 122L213 123L212 122z"/>
<path style="fill:#82939c; stroke:none;" d="M32 123L33 124L32 123z"/>
<path style="fill:#4c5f68; stroke:none;" d="M211 123L212 124L211 123M33 124L34 125L33 124z"/>
<path style="fill:#a5b6be; stroke:none;" d="M209 124L210 125L209 124z"/>
<path style="fill:#4c5f68; stroke:none;" d="M210 124L211 125L210 124z"/>
<path style="fill:#82939c; stroke:none;" d="M35 125L36 126L35 125M208 125L209 126L208 125z"/>
<path style="fill:#4c5f68; stroke:none;" d="M37 126L38 127L37 126z"/>
<path style="fill:#a5b6be; stroke:none;" d="M205 126L206 127L205 126z"/>
<path style="fill:#4c5f68; stroke:none;" d="M206 126L207 127L206 126M39 127L40 128L39 127z"/>
<path style="fill:#82939c; stroke:none;" d="M40 127L41 128L40 127z"/>
<path style="fill:#a5b6be; stroke:none;" d="M41 127L42 128L41 127M202 127L203 128L202 127z"/>
<path style="fill:#82939c; stroke:none;" d="M203 127L204 128L203 127z"/>
<path style="fill:#4c5f68; stroke:none;" d="M204 127L205 128L204 127M43.6667 128.333L44.3333 128.667L43.6667 128.333z"/>
<path style="fill:#82939c; stroke:none;" d="M45 128L46 129L45 128z"/>
<path style="fill:#a5b6be; stroke:none;" d="M46.6667 128.333L47.3333 128.667L46.6667 128.333M195 128L195 129L198 129L195 128z"/>
<path style="fill:#82939c; stroke:none;" d="M198.667 128.333L199.333 128.667L198.667 128.333z"/>
</svg>
